<?xml version="1.0" standalone="no"?>
<!DOCTYPE svg PUBLIC "-//W3C//DTD SVG 20010904//EN"
 "http://www.w3.org/TR/2001/REC-SVG-20010904/DTD/svg10.dtd">
<svg version="1.0" xmlns="http://www.w3.org/2000/svg"
 width="512.000000pt" height="512.000000pt" viewBox="0 0 512.000000 512.000000"
 preserveAspectRatio="xMidYMid meet">

<g transform="translate(0.000000,512.000000) scale(0.100000,-0.100000)"
fill="#ffff" stroke="none">
<path d="M2970 4919 c-367 -26 -706 -183 -975 -453 -178 -179 -295 -365 -370
-590 -32 -95 -75 -281 -75 -323 0 -11 -25 -36 -63 -64 l-63 -46 -53 49 c-109
100 -258 166 -424 188 -100 14 -137 5 -156 -36 -7 -16 -11 -100 -11 -234 l0
-209 -66 2 c-107 3 -104 14 -104 -342 l0 -297 -74 -13 c-49 -8 -80 -19 -92
-32 -45 -50 -59 -292 -25 -434 35 -144 109 -276 211 -376 l57 -55 -91 -18
c-112 -21 -253 -87 -276 -128 -13 -25 -13 -31 0 -55 9 -16 28 -34 43 -41 25
-12 33 -11 88 18 33 17 95 40 136 51 74 19 131 19 2190 19 2300 0 2154 4 2181
-55 19 -42 14 -74 -17 -106 l-29 -29 -2089 0 c-1409 0 -2109 -4 -2153 -11
-372 -60 -443 -561 -102 -722 l67 -32 2135 -5 c1181 -3 2143 -9 2153 -14 23
-11 47 -58 47 -90 0 -14 -13 -40 -29 -58 l-29 -33 -2129 0 c-1760 0 -2138 2
-2183 14 -170 42 -315 158 -388 311 -71 147 -80 294 -27 440 38 107 42 143 16
169 -23 23 -69 28 -94 8 -27 -20 -74 -137 -93 -228 -33 -162 -3 -344 81 -496
48 -85 177 -217 264 -267 91 -53 194 -85 313 -96 67 -7 824 -10 2178 -8 l2075
3 45 21 c96 45 145 122 145 229 0 58 -5 78 -28 117 -50 86 -133 128 -249 128
l-58 0 0 235 0 235 75 0 c121 0 193 44 241 145 54 113 10 245 -104 312 l-47
28 -387 5 -386 5 35 38 35 39 39 -16 c54 -22 154 -20 206 3 23 11 59 38 82 61
l40 41 46 -15 c106 -36 218 -7 288 75 37 43 67 119 67 170 0 32 -304 1258
-319 1287 -5 10 -41 38 -79 60 -122 73 -185 171 -185 291 -1 79 14 129 59 197
19 28 34 61 34 73 0 31 -78 182 -151 291 -123 184 -433 460 -518 460 -49 0
-84 -56 -65 -104 4 -9 47 -45 98 -79 105 -72 271 -232 339 -328 25 -36 66
-101 91 -145 l45 -79 -35 -70 c-110 -227 -25 -498 198 -629 42 -25 58 -51 58
-96 0 -5 -24 5 -52 21 -93 51 -212 37 -286 -34 -46 -44 -64 -82 -106 -229 -43
-151 -46 -212 -12 -283 40 -86 117 -137 210 -137 59 0 326 65 362 88 19 13 25
14 29 3 3 -8 34 -135 71 -284 59 -243 65 -273 54 -308 -30 -101 -167 -102
-211 -1 -30 67 -86 85 -127 41 -17 -18 -22 -36 -22 -81 0 -53 -3 -61 -34 -92
-60 -60 -146 -41 -185 40 -32 70 -82 86 -126 42 -20 -20 -24 -34 -23 -78 2
-59 -11 -90 -47 -114 -57 -37 -134 -13 -166 52 -36 75 -77 92 -125 50 -24 -20
-28 -31 -28 -84 -1 -53 -5 -65 -29 -90 -35 -37 -77 -46 -122 -28 -44 19 -63
50 -86 143 -21 83 -44 113 -86 113 -13 0 -180 -39 -371 -86 -294 -72 -356 -85
-407 -81 -106 8 -195 69 -242 165 -37 74 -39 182 -6 254 32 70 99 132 173 159
71 26 96 60 78 110 -15 43 -57 55 -120 34 -54 -17 -144 -70 -167 -98 -21 -26
-28 -21 -34 27 -9 61 -25 93 -56 105 -48 19 -115 31 -183 31 l-68 0 0 519 0
520 -23 27 c-22 25 -29 27 -93 25 -38 -1 -98 -8 -133 -17 -35 -8 -66 -13 -68
-10 -9 9 51 217 87 303 240 561 791 896 1401 852 61 -5 158 -20 215 -34 58
-14 116 -25 128 -25 28 0 66 39 66 67 0 54 -24 71 -146 102 -151 38 -322 52
-494 40z m-1902 -1419 c70 -25 149 -72 210 -127 l47 -41 -18 -29 c-41 -65 -88
-166 -103 -222 l-17 -59 -52 39 c-28 21 -86 55 -128 74 l-77 36 0 181 0 181
41 -7 c23 -4 66 -15 97 -26z m810 -547 c-4 -527 -4 -539 -26 -597 -41 -109
-120 -206 -213 -264 -38 -23 -142 -62 -166 -62 -10 0 -13 47 -13 248 0 307
-17 393 -107 544 -31 52 -33 62 -27 110 32 257 212 469 457 539 110 31 99 94
95 -518z m2675 25 c105 -110 121 -136 112 -178 -11 -51 -46 -71 -187 -105
-143 -35 -177 -34 -210 6 -26 31 -22 75 17 212 40 142 60 167 128 167 40 0 46
-5 140 -102z m-3646 36 c167 -62 311 -211 374 -387 18 -51 23 -90 27 -221 l4
-158 -79 78 c-44 44 -112 98 -152 122 -72 42 -229 102 -269 102 -53 0 -52 -6
-52 257 l0 245 43 -7 c23 -4 70 -18 104 -31z m-37 -632 c253 -83 425 -310 438
-579 2 -56 2 -113 -2 -127 l-6 -26 -140 0 c-113 0 -151 4 -195 19 -170 60
-315 207 -383 389 -26 72 -41 243 -28 317 l7 37 122 -4 c88 -4 140 -11 187
-26z m1296 13 c37 -8 45 -111 18 -243 -45 -225 -206 -405 -430 -482 -77 -27
-310 -30 -300 -4 3 9 6 59 6 113 l0 97 67 14 c171 34 349 173 430 337 23 44
44 100 48 123 5 29 13 44 28 49 20 8 85 5 133 -4z m119 -545 c32 -64 86 -123
150 -166 l50 -34 -219 0 -219 0 75 79 c42 43 88 99 103 125 15 25 29 46 31 46
2 0 15 -23 29 -50z m1109 -144 c9 -27 16 -51 16 -53 0 -2 -111 -3 -247 -2
l-248 1 225 58 c124 31 228 54 231 51 4 -3 14 -28 23 -55z m1234 -783 l2 -233
-1967 0 c-1357 0 -1980 3 -2006 11 -48 13 -112 70 -139 123 -63 123 12 285
149 322 39 10 435 12 2003 11 l1955 -2 3 -232z"/>
<path d="M3395 3683 c-96 -14 -213 -70 -284 -136 -171 -162 -203 -442 -73
-643 214 -329 709 -296 877 58 92 194 59 407 -89 565 -107 116 -278 177 -431
156z m199 -174 c226 -84 294 -385 130 -568 -167 -186 -468 -143 -580 84 -33
67 -37 82 -37 155 0 73 4 88 37 155 86 173 267 243 450 174z"/>
<path d="M2542 3660 c-43 -18 -47 -50 -23 -159 22 -94 22 -102 7 -153 -10 -36
-27 -65 -53 -89 -50 -48 -61 -53 -184 -84 -57 -14 -116 -30 -131 -36 -56 -22
-58 -106 -2 -131 21 -10 47 -7 159 21 155 38 200 58 260 116 109 106 135 246
80 429 -18 61 -23 69 -52 85 -25 13 -30 13 -61 1z"/>
</g>
</svg>
