<?xml version="1.0" standalone="no"?>
<!DOCTYPE svg PUBLIC "-//W3C//DTD SVG 20010904//EN"
 "http://www.w3.org/TR/2001/REC-SVG-20010904/DTD/svg10.dtd">
<svg version="1.0" xmlns="http://www.w3.org/2000/svg"
 width="512.000000pt" height="512.000000pt" viewBox="0 0 512.000000 512.000000"
 preserveAspectRatio="xMidYMid meet">

<g transform="translate(0.000000,512.000000) scale(0.100000,-0.100000)"
fill="#000000" stroke="none">
<path d="M4580 5113 c-8 -3 -85 -36 -170 -73 -427 -186 -769 -299 -1120 -371
-85 -17 -165 -37 -176 -44 -44 -28 -39 -88 11 -121 22 -14 32 -14 112 1 370
67 807 209 1236 399 81 36 156 66 167 66 10 0 32 -12 49 -26 l31 -26 0 -146
c0 -81 7 -343 16 -582 25 -668 11 -1014 -52 -1328 -108 -538 -387 -918 -843
-1147 -51 -25 -61 -27 -189 -26 -122 1 -236 12 -299 27 -16 4 -22 12 -19 23 6
18 47 244 66 359 l12 72 61 0 c89 0 239 25 332 54 321 102 575 360 665 676 28
94 38 316 20 404 -20 96 -104 168 -179 153 -14 -3 -77 -39 -139 -80 -175 -116
-429 -231 -578 -262 l-31 -6 -5 50 c-10 105 -103 199 -207 209 -35 3 -95 -7
-217 -36 -311 -75 -570 -120 -809 -142 -66 -5 -143 -12 -170 -15 l-51 -5 -27
83 c-15 45 -86 269 -157 497 -71 228 -143 454 -159 502 -39 109 -39 132 -1
170 28 27 35 30 73 24 23 -3 186 -9 362 -13 380 -7 645 7 685 36 36 26 39 79
6 110 l-24 23 -158 -11 c-197 -14 -550 -14 -758 -1 -197 13 -232 4 -299 -70
-46 -51 -67 -103 -67 -165 0 -20 40 -161 89 -313 101 -310 271 -856 271 -868
0 -9 -365 2 -495 16 -253 27 -577 85 -837 151 -135 34 -187 36 -243 10 -54
-24 -119 -100 -135 -156 -11 -40 -9 -70 13 -238 14 -106 34 -257 43 -337 19
-164 30 -195 74 -205 33 -7 76 13 87 42 7 18 -14 222 -53 506 -24 176 -25 189
-9 213 26 40 57 49 118 35 366 -87 626 -136 892 -168 235 -27 777 -25 1025 5
226 28 502 78 725 132 92 22 177 40 190 40 31 0 75 -47 75 -79 0 -14 -11 -86
-25 -160 -14 -74 -48 -288 -75 -475 -94 -631 -142 -877 -226 -1149 -143 -462
-367 -789 -681 -994 -148 -97 -424 -213 -504 -213 -43 0 -276 55 -359 85 -250
90 -463 257 -619 484 -195 285 -321 678 -405 1264 -14 98 -30 187 -36 197 -23
43 -101 37 -124 -9 -14 -25 -12 -47 14 -223 37 -255 90 -511 140 -681 187
-640 514 -1022 1017 -1186 144 -47 338 -84 403 -78 110 12 363 114 515 207
402 247 683 675 826 1257 12 48 25 91 28 96 4 4 52 0 107 -8 139 -21 385 -21
444 0 144 51 386 221 536 377 360 374 515 887 514 1703 0 104 -7 363 -15 575
-8 212 -15 462 -15 555 0 143 -3 176 -19 210 -22 48 -71 98 -120 121 -37 18
-125 28 -151 17z m-236 -1835 c12 -45 6 -230 -10 -301 -22 -100 -101 -257
-172 -343 -150 -178 -380 -291 -634 -310 l-88 -7 0 26 c0 28 63 456 81 547
l11 56 108 27 c200 51 415 147 595 266 50 33 93 60 96 60 4 1 9 -9 13 -21z"/>
<path d="M3870 4057 c-87 -29 -147 -66 -205 -124 -79 -80 -92 -133 -42 -168
42 -30 73 -19 134 45 33 36 78 71 112 87 49 25 68 28 152 28 88 0 100 -2 159
-32 77 -41 111 -42 139 -7 41 53 22 95 -62 138 -121 61 -269 74 -387 33z"/>
<path d="M2703 3846 c-87 -21 -164 -66 -235 -138 -58 -58 -68 -73 -68 -103 0
-45 29 -75 74 -75 28 0 41 8 80 55 33 38 67 64 114 87 60 30 75 33 157 33 82
0 97 -3 156 -32 37 -18 78 -33 93 -33 35 0 66 33 66 70 0 102 -253 180 -437
136z"/>
<path d="M1164 2455 c-129 -28 -274 -127 -274 -187 0 -75 81 -96 146 -39 65
57 138 85 224 85 94 1 157 -20 235 -79 33 -25 67 -45 77 -45 32 0 71 44 71 80
0 85 -222 201 -378 199 -22 0 -68 -7 -101 -14z"/>
<path d="M2410 2463 c-137 -23 -300 -126 -300 -190 0 -37 23 -69 55 -77 28 -7
58 5 95 40 14 12 52 35 85 51 50 23 74 27 140 27 91 0 154 -23 239 -88 55 -41
73 -44 110 -15 19 15 26 29 26 56 0 30 -8 43 -42 75 -99 91 -275 143 -408 121z"/>
<path d="M960 1768 c-19 -13 -44 -43 -58 -68 -22 -41 -23 -53 -18 -135 30
-487 432 -868 951 -902 221 -14 474 59 660 192 94 67 223 209 278 306 58 103
103 237 117 355 13 99 8 142 -22 194 -48 85 -116 99 -228 47 -192 -90 -415
-150 -628 -169 -274 -25 -573 30 -853 158 -109 50 -151 54 -199 22z m170 -174
c188 -82 396 -135 615 -155 263 -24 586 28 849 137 169 69 159 70 151 -12 -16
-149 -70 -295 -151 -406 -55 -74 -174 -179 -258 -227 -548 -313 -1246 23
-1302 627 -5 50 -3 72 4 72 6 0 47 -16 92 -36z"/>
</g>
</svg>
