<?xml version="1.0" standalone="no"?>
<!DOCTYPE svg PUBLIC "-//W3C//DTD SVG 20010904//EN"
 "http://www.w3.org/TR/2001/REC-SVG-20010904/DTD/svg10.dtd">
<svg version="1.0" xmlns="http://www.w3.org/2000/svg"
 width="512.000000pt" height="512.000000pt" viewBox="0 0 512.000000 512.000000"
 preserveAspectRatio="xMidYMid meet">

<g transform="translate(0.000000,512.000000) scale(0.100000,-0.100000)"
fill="#000000" stroke="none">
<path d="M2352 5063 c-13 -3 -152 -49 -309 -104 -157 -54 -287 -99 -289 -99
-2 0 -11 -14 -20 -31 -13 -26 -13 -36 -3 -60 12 -31 36 -49 63 -49 9 0 147 45
306 100 196 67 306 100 335 100 32 0 341 -103 1117 -371 590 -204 1075 -373
1077 -375 2 -2 2 -6 -1 -9 -2 -3 -160 -59 -349 -124 -189 -66 -351 -122 -360
-126 -13 -5 -17 3 -21 40 -7 61 -47 118 -100 143 -75 36 -549 99 -917 123
-208 13 -880 7 -1056 -10 -352 -34 -711 -88 -763 -115 -45 -23 -82 -78 -91
-133 -5 -34 -11 -47 -22 -45 -26 6 -702 241 -707 247 -3 3 -3 7 -1 9 2 2 285
101 629 220 371 128 632 224 644 235 42 42 12 121 -46 121 -16 0 -316 -99
-666 -220 -615 -213 -638 -222 -674 -260 -24 -24 -39 -50 -40 -67 -4 -80 15
-131 59 -160 14 -10 204 -79 422 -154 l396 -137 3 -369 2 -369 -97 -22 c-288
-65 -510 -282 -584 -567 -28 -109 -28 -270 0 -380 40 -156 147 -324 259 -410
29 -21 52 -42 52 -45 0 -3 -34 -16 -75 -29 -177 -56 -353 -210 -438 -383 -65
-132 -81 -198 -81 -348 -1 -145 14 -212 73 -335 113 -236 326 -395 581 -434
56 -9 590 -11 2060 -9 1836 3 1987 4 2016 20 41 23 89 73 111 117 24 51 22
144 -5 197 -34 67 -80 101 -177 130 -34 11 -47 41 -71 162 -18 96 -18 210 2
313 24 126 34 146 83 154 113 19 204 146 185 259 -18 113 -99 188 -216 202
l-54 6 4 58 c5 73 -11 122 -56 172 -42 46 -78 67 -135 76 l-42 8 -23 79 c-40
137 -41 317 -2 457 l11 37 55 -30 56 -29 247 0 c216 0 251 3 286 19 75 34 125
113 125 199 0 18 -40 132 -89 255 l-90 222 32 65 c28 55 32 75 32 140 -1 124
-60 220 -169 273 l-56 28 0 288 c0 282 0 289 -23 321 -12 19 -36 42 -52 52
-17 9 -260 97 -540 193 -692 240 -981 340 -1305 452 -151 53 -297 102 -325
109 -48 13 -134 16 -183 7z m544 -994 c316 -20 811 -86 841 -110 10 -9 13 -68
13 -275 l0 -264 -245 0 c-232 0 -246 -1 -265 -20 -30 -30 -27 -83 6 -109 25
-20 39 -21 265 -21 l239 0 0 -130 0 -130 -1315 0 -1315 0 0 130 0 130 919 0
c914 0 918 0 945 21 33 26 36 79 6 109 -20 20 -33 20 -945 20 l-925 0 2 273 3
272 159 27 c176 29 488 65 671 77 182 12 761 12 941 0z m1734 -252 l0 -183
-37 -13 c-56 -20 -146 -116 -166 -175 -31 -90 -20 -200 27 -269 l25 -36 -26
-65 -26 -66 -264 0 -263 0 2 371 3 371 355 124 c195 68 358 123 363 124 4 0 7
-82 7 -183z m160 -349 c123 -85 68 -278 -79 -278 -153 0 -209 200 -79 280 46
28 115 27 158 -2z m103 -614 c42 -105 77 -198 77 -207 0 -9 -9 -26 -20 -37
-19 -19 -33 -20 -242 -20 -241 0 -258 4 -258 58 0 13 34 108 75 211 l75 186
108 0 108 0 77 -191z m-538 -14 c-3 -11 -17 -46 -30 -77 l-23 -58 -1674 -5
-1673 -5 -64 -24 c-132 -49 -249 -171 -288 -299 -23 -74 -23 -200 0 -274 40
-131 159 -253 294 -299 67 -24 76 -24 429 -24 342 0 363 1 383 19 26 24 29 87
4 107 -13 11 -91 15 -377 19 -347 5 -363 6 -409 27 -80 37 -123 78 -159 151
-28 56 -33 78 -33 137 0 59 5 81 33 137 36 73 80 114 159 150 43 20 65 22 218
23 l170 0 5 -225 c3 -124 9 -231 13 -238 23 -35 55 -33 174 12 l116 44 114
-44 c102 -40 116 -44 140 -32 48 23 53 46 53 276 l0 212 1135 0 c901 0 1135
-3 1135 -12 0 -7 -9 -56 -20 -108 -26 -124 -26 -266 0 -390 11 -52 20 -101 20
-107 0 -10 -228 -13 -1108 -13 -1238 0 -1152 5 -1152 -69 0 -26 7 -44 21 -57
20 -18 57 -19 1234 -22 l1214 -2 20 -26 c28 -36 27 -79 -4 -109 l-24 -25
-1723 0 c-1905 0 -1772 -4 -1913 65 -214 104 -347 320 -347 560 0 240 133 456
347 560 138 68 7 64 1888 64 1698 1 1708 1 1702 -19z m-2577 -449 c2 -143 1
-153 -15 -146 -134 53 -150 54 -240 17 l-53 -22 0 155 0 156 153 -3 152 -3 3
-154z m2911 -956 c11 -11 23 -34 27 -52 5 -27 1 -37 -24 -63 l-30 -30 -1964 0
c-1716 0 -1971 -2 -2027 -15 -281 -67 -431 -379 -308 -640 48 -101 121 -174
224 -223 l78 -37 1552 -3 c1545 -2 1553 -2 1573 18 30 30 27 83 -6 109 l-27
21 -1518 0 -1518 0 -58 21 c-150 57 -230 235 -177 393 22 64 100 147 166 177
l53 24 1218 3 1217 2 0 -212 c0 -230 5 -253 53 -276 24 -12 38 -8 141 32 l114
45 104 -41 c119 -47 153 -51 180 -19 16 21 18 44 18 247 l0 224 363 0 363 0
-19 -72 c-29 -105 -29 -371 0 -475 l19 -73 -201 0 c-190 0 -204 -1 -229 -21
-30 -23 -35 -72 -12 -105 14 -18 32 -19 325 -24 304 -5 311 -5 333 -27 33 -33
30 -89 -6 -119 l-27 -24 -2002 2 -2002 3 -65 22 c-250 86 -422 308 -437 567
-11 179 51 340 182 472 109 109 211 162 360 184 28 4 933 7 2012 6 1949 -1
1963 -1 1982 -21z m-1089 -450 l0 -155 -52 22 c-81 33 -110 33 -183 4 -36 -14
-67 -26 -70 -26 -3 0 -5 70 -5 155 l0 155 155 0 155 0 0 -155z"/>
</g>
</svg>
