<?xml version="1.0" standalone="no"?>
<!DOCTYPE svg PUBLIC "-//W3C//DTD SVG 20010904//EN"
 "http://www.w3.org/TR/2001/REC-SVG-20010904/DTD/svg10.dtd">
<svg version="1.0" xmlns="http://www.w3.org/2000/svg"
 width="512.000000pt" height="512.000000pt" viewBox="0 0 512.000000 512.000000"
 preserveAspectRatio="xMidYMid meet">

<g transform="translate(0.000000,512.000000) scale(0.100000,-0.100000)"
fill="#fff" stroke="none">
<path d="M2498 4939 c-124 -18 -241 -106 -300 -227 -30 -62 -33 -74 -33 -167
0 -107 17 -161 70 -231 14 -18 25 -35 25 -37 0 -3 -21 -16 -47 -28 -96 -46
-181 -158 -203 -266 -12 -58 -50 -485 -50 -557 0 -95 55 -146 160 -146 l50 0
0 -254 0 -254 -52 -7 c-29 -4 -107 -20 -172 -36 -65 -16 -120 -28 -121 -27 -8
11 -205 441 -203 443 2 2 26 14 54 28 58 29 84 63 91 117 6 44 8 39 -156 325
-137 238 -196 312 -283 353 -55 26 -119 41 -168 42 l-35 0 0 112 c0 107 -2
117 -32 179 -40 81 -111 150 -197 190 -244 114 -530 -50 -562 -324 -18 -149
79 -329 210 -391 l35 -17 -40 -52 c-23 -31 -48 -80 -61 -120 -34 -113 -26
-160 86 -472 83 -230 102 -275 131 -302 47 -45 94 -51 162 -23 30 13 58 19 62
14 11 -12 201 -423 201 -433 0 -5 -42 -40 -92 -78 -334 -251 -589 -560 -768
-928 -142 -292 -219 -571 -250 -900 -13 -148 -12 -236 4 -257 31 -42 103 -39
124 5 6 12 13 78 17 147 37 766 435 1464 1081 1894 158 106 510 276 546 264
11 -4 118 -261 118 -284 0 -7 -38 -77 -85 -155 -46 -77 -87 -157 -91 -177 -10
-52 13 -209 38 -260 28 -58 71 -84 213 -127 165 -50 173 -48 365 95 81 61 153
110 160 110 15 0 96 -59 128 -93 l24 -25 -52 -194 c-29 -106 -58 -203 -66
-214 -9 -15 -88 -52 -257 -119 l-245 -98 -122 73 c-148 87 -177 100 -230 100
-77 0 -119 -79 -67 -128 13 -12 36 -22 53 -22 18 0 81 -30 167 -79 151 -86
185 -98 249 -80 61 16 487 187 525 210 51 32 69 73 130 290 62 227 68 282 35
345 -23 45 -141 142 -204 168 -85 36 -130 19 -317 -123 -79 -59 -141 -99 -150
-97 -128 37 -191 59 -201 71 -7 8 -17 50 -23 92 l-10 78 73 120 c134 220 134
220 51 427 l-59 148 41 11 c318 86 737 92 1102 18 247 -51 570 -185 790 -329
138 -91 211 -148 352 -277 91 -84 117 -103 142 -103 64 0 92 70 50 124 -34 44
-223 210 -320 283 -49 36 -89 70 -89 74 0 11 191 422 201 433 4 5 32 -1 62
-14 68 -28 115 -22 162 23 29 27 49 72 132 302 94 261 97 273 98 355 0 102
-19 164 -73 235 l-38 50 56 36 c299 193 226 636 -120 725 -177 45 -370 -47
-453 -215 -30 -62 -32 -72 -32 -179 l0 -112 -35 0 c-49 -1 -113 -16 -168 -42
-88 -41 -146 -114 -296 -373 -151 -262 -162 -292 -128 -355 16 -29 79 -76 125
-92 6 -3 -181 -422 -198 -446 -1 -1 -58 11 -125 28 -68 16 -145 33 -171 36
l-47 6 -4 65 c-3 54 -8 69 -27 84 -30 25 -62 24 -95 -2 -22 -18 -26 -28 -26
-76 0 -53 -1 -55 -22 -49 -13 3 -49 6 -80 6 l-57 0 -3 294 c-3 273 -4 295 -22
315 -13 14 -31 21 -56 21 -25 0 -43 -7 -56 -21 -18 -20 -19 -42 -22 -315 l-3
-294 -57 0 c-31 0 -67 -3 -79 -6 l-23 -6 0 300 0 301 -26 20 c-22 17 -41 21
-105 21 -74 0 -79 1 -79 21 0 77 44 493 56 530 18 56 72 114 128 140 36 16 68
19 266 19 198 0 230 -3 266 -19 56 -26 110 -84 128 -140 12 -37 56 -453 56
-530 0 -20 -5 -21 -79 -21 -64 0 -83 -4 -105 -21 -25 -20 -26 -24 -26 -120 0
-114 13 -139 74 -139 45 0 76 37 76 91 l0 39 50 0 c105 0 160 51 160 146 0 72
-38 499 -50 557 -22 108 -107 220 -202 266 -27 12 -48 25 -48 28 0 2 11 19 25
37 71 93 92 225 56 344 -43 142 -171 259 -302 277 -24 4 -53 8 -64 9 -11 2
-46 -1 -77 -5z m151 -161 c48 -15 110 -75 137 -133 43 -91 28 -187 -43 -265
-50 -56 -112 -84 -183 -84 -71 0 -133 28 -183 84 -69 76 -86 172 -46 260 58
129 178 181 318 138z m-1843 -413 c132 -39 203 -179 162 -319 -16 -55 -99
-138 -154 -154 -140 -41 -280 30 -319 162 -18 60 -18 99 -1 149 29 80 83 134
163 163 50 17 89 17 149 -1z m3690 -13 c111 -57 164 -177 130 -293 -51 -175
-264 -237 -400 -117 -180 158 -57 452 180 434 28 -2 69 -13 90 -24z m-3267
-508 c79 -23 120 -73 256 -309 66 -115 121 -214 123 -220 1 -6 -26 -23 -62
-38 -75 -33 -100 -57 -99 -95 0 -15 53 -139 117 -276 64 -137 114 -251 111
-254 -4 -4 -135 -62 -141 -62 -1 0 -54 114 -118 253 -65 138 -127 260 -138
270 -11 9 -31 17 -45 17 -31 0 -73 -42 -73 -73 0 -13 52 -135 115 -270 63
-136 115 -251 115 -256 0 -10 -130 -84 -136 -78 -2 2 -56 116 -120 253 -63
137 -125 257 -136 267 -29 24 -56 21 -132 -14 -37 -17 -69 -29 -72 -27 -2 3
-43 110 -91 239 -77 208 -87 242 -87 304 -1 59 3 77 27 117 37 64 67 85 247
168 230 107 248 112 339 84z m2980 -75 c201 -92 230 -111 268 -177 24 -40 28
-58 27 -117 0 -62 -10 -96 -87 -304 -48 -129 -89 -236 -91 -239 -3 -2 -35 10
-72 27 -76 35 -103 38 -132 14 -11 -10 -73 -130 -136 -267 -64 -137 -118 -251
-120 -253 -6 -6 -136 68 -136 78 0 5 52 120 115 256 63 135 115 257 115 270 0
31 -42 73 -73 73 -14 0 -34 -8 -45 -17 -11 -10 -73 -130 -138 -268 -64 -137
-118 -251 -119 -252 -2 -4 -129 49 -138 57 -4 4 45 119 109 256 64 137 117
261 117 276 1 38 -24 62 -99 95 -36 15 -63 32 -62 38 2 6 57 105 123 220 133
231 177 285 252 309 80 26 128 15 322 -75z"/>
<path d="M1151 1894 c-54 -68 8 -136 107 -121 68 11 95 82 49 125 -18 17 -36
22 -79 22 -49 0 -59 -3 -77 -26z"/>
<path d="M4535 1735 c-14 -13 -25 -35 -25 -47 0 -13 29 -68 65 -123 87 -132
215 -392 263 -535 75 -219 116 -439 128 -676 4 -75 12 -138 19 -147 18 -24 56
-36 86 -25 46 16 53 44 45 184 -24 452 -150 854 -390 1242 -95 154 -137 182
-191 127z"/>
<path d="M1342 1637 c-47 -50 -16 -116 59 -124 90 -10 147 54 102 116 -17 22
-29 26 -79 29 -52 2 -63 0 -82 -21z"/>
<path d="M3480 1505 c-69 -13 -140 -27 -158 -30 -57 -11 -116 -75 -147 -160
-26 -71 -31 -77 -139 -171 -147 -129 -161 -148 -161 -233 0 -98 25 -131 157
-209 165 -97 198 -96 360 14 60 41 118 74 128 74 10 0 124 -36 252 -80 247
-85 293 -93 355 -64 39 19 199 187 226 238 25 47 31 94 18 142 -15 57 -101
167 -146 189 -21 9 -91 25 -156 34 -66 10 -122 21 -125 24 -4 4 -32 48 -63 99
-31 50 -74 105 -95 122 -33 27 -46 31 -109 33 -42 1 -123 -8 -197 -22z m281
-225 c88 -143 107 -155 294 -180 50 -7 96 -17 104 -24 23 -18 71 -88 71 -102
0 -21 -160 -194 -179 -194 -10 0 -125 36 -255 80 -140 47 -253 80 -277 80 -54
0 -89 -16 -201 -94 -53 -36 -101 -66 -108 -66 -15 0 -113 54 -157 87 -18 13
-33 33 -33 43 0 12 45 60 119 125 133 118 138 124 170 212 13 34 28 67 35 72
14 11 264 59 318 60 36 1 38 -1 99 -99z"/>
<path d="M1232 1069 c-48 -14 -106 -77 -121 -132 -12 -40 -10 -69 13 -238 15
-105 32 -201 38 -213 29 -55 222 -292 246 -302 30 -13 68 -3 88 24 28 36 15
65 -87 197 -56 72 -105 139 -109 150 -14 31 -51 331 -44 349 3 9 18 19 33 22
76 16 101 38 101 88 0 58 -67 81 -158 55z"/>
<path d="M671 814 c-28 -35 -26 -69 4 -99 19 -20 34 -25 75 -25 41 0 56 5 75
25 14 13 25 36 25 50 0 14 -11 37 -25 50 -20 21 -34 25 -79 25 -47 0 -57 -4
-75 -26z"/>
</g>
</svg>
