<?xml version="1.0" standalone="no"?>
<!DOCTYPE svg PUBLIC "-//W3C//DTD SVG 20010904//EN"
 "http://www.w3.org/TR/2001/REC-SVG-20010904/DTD/svg10.dtd">
<svg version="1.0" xmlns="http://www.w3.org/2000/svg"
 width="512.000000pt" height="512.000000pt" viewBox="0 0 512.000000 512.000000"
 preserveAspectRatio="xMidYMid meet">

<g transform="translate(0.000000,512.000000) scale(0.100000,-0.100000)"
fill="#fff" stroke="none">
<path d="M1835 5095 c-100 -22 -238 -92 -312 -159 -56 -52 -146 -159 -155
-187 -3 -8 -28 -4 -80 14 -361 121 -715 -15 -873 -335 -59 -120 -79 -213 -72
-338 11 -217 118 -405 312 -548 72 -53 325 -182 358 -182 29 0 67 39 67 69 0
43 -21 62 -133 117 -252 126 -368 237 -427 410 -65 189 -15 400 130 545 78 78
163 123 278 146 96 20 224 7 329 -33 162 -62 171 -60 234 48 87 148 224 251
379 284 281 59 583 -135 640 -413 19 -90 8 -233 -25 -323 -15 -41 -149 -317
-296 -613 l-269 -537 -290 145 c-159 80 -301 145 -315 145 -55 0 -89 -86 -47
-122 32 -29 642 -328 667 -328 71 0 66 -9 389 639 350 700 352 707 344 914 -8
186 -64 313 -199 447 -83 84 -205 155 -314 184 -89 24 -236 29 -320 11z"/>
<path d="M3223 3851 c-256 -41 -465 -226 -528 -468 -22 -83 -19 -242 5 -335
16 -60 395 -966 470 -1123 22 -45 64 -75 105 -75 30 0 371 143 397 167 42 37
8 123 -47 123 -14 0 -94 -29 -178 -65 l-152 -64 -13 32 c-8 17 -106 246 -218
508 -112 262 -210 503 -219 535 -21 81 -19 208 4 283 68 220 306 367 537 331
149 -23 289 -129 366 -276 21 -39 44 -77 52 -83 22 -19 66 -16 135 8 213 74
419 34 554 -108 202 -212 172 -541 -65 -720 -66 -49 -118 -75 -342 -172 -98
-42 -187 -84 -197 -93 -29 -24 -25 -80 7 -105 15 -12 34 -21 43 -21 25 0 440
181 506 220 121 73 238 205 287 325 37 90 43 122 43 240 -1 104 -5 130 -27
193 -70 195 -214 337 -402 398 -105 35 -270 37 -384 7 l-74 -20 -39 63 c-45
71 -153 177 -220 216 -110 65 -283 98 -406 79z"/>
<path d="M2046 2535 c-130 -33 -257 -126 -335 -245 l-36 -55 -50 11 c-69 17
-230 17 -290 0 -173 -46 -311 -171 -372 -336 -25 -66 -28 -89 -28 -190 0 -136
18 -196 91 -302 71 -105 174 -179 345 -250 122 -50 133 -45 -156 -79 -149 -18
-252 -23 -480 -25 -167 -1 -301 -6 -315 -12 -54 -22 -108 -71 -134 -123 -24
-50 -26 -62 -26 -195 l0 -142 -79 -3 c-85 -4 -114 -18 -155 -73 -20 -25 -21
-41 -21 -216 0 -207 2 -214 69 -264 26 -20 42 -21 382 -24 l354 -3 25 25 c32
32 32 70 0 101 l-24 25 -331 0 -330 0 0 140 0 140 1045 0 1044 0 41 -53 c22
-30 51 -59 65 -65 35 -16 395 -16 430 0 14 6 43 35 65 65 l41 53 1044 0 1045
0 0 -140 0 -140 -1934 0 -1935 0 -20 -26 c-28 -35 -26 -69 4 -100 l24 -24
1955 2 1955 3 27 21 c67 50 69 57 69 264 0 175 -1 191 -21 216 -41 55 -70 69
-155 73 l-79 3 0 142 c0 134 -2 145 -27 195 -28 58 -88 108 -151 127 -25 8
-97 10 -217 6 -223 -6 -392 7 -840 63 -192 25 -416 49 -497 54 -219 15 -401
-4 -529 -55 -35 -15 -42 -14 -101 7 -35 12 -64 23 -66 24 -1 1 56 146 128 323
72 177 137 350 145 384 82 349 -155 668 -510 684 -59 2 -110 -1 -149 -11z
m214 -146 c172 -39 298 -186 308 -359 6 -105 -8 -151 -158 -523 l-131 -323
-157 -1 c-86 -1 -196 -6 -244 -12 l-88 -10 -221 89 c-122 50 -243 102 -268
117 -76 44 -148 120 -184 192 -30 61 -32 73 -32 166 0 88 3 107 27 157 37 80
107 152 187 191 88 43 214 50 320 18 121 -37 143 -28 196 78 30 61 101 141
152 172 82 51 198 70 293 48z m95 -1374 c129 -27 122 -20 127 -147 3 -106 4
-111 31 -134 35 -30 59 -30 94 0 27 23 28 28 31 134 5 128 -2 120 133 148 140
28 412 16 839 -39 451 -58 597 -69 843 -65 l199 3 29 -33 c29 -32 29 -33 29
-162 l0 -130 -935 0 c-804 0 -940 -2 -964 -15 -16 -8 -45 -37 -66 -65 l-37
-50 -148 0 -148 0 -37 50 c-21 28 -50 57 -66 65 -24 13 -160 15 -964 15 l-935
0 0 130 c0 129 0 130 29 162 l29 33 204 -3 c246 -4 366 5 833 63 198 24 376
46 395 48 101 11 390 6 455 -8z"/>
</g>
</svg>
