<?xml version="1.0" standalone="no"?>
<!DOCTYPE svg PUBLIC "-//W3C//DTD SVG 20010904//EN"
 "http://www.w3.org/TR/2001/REC-SVG-20010904/DTD/svg10.dtd">
<svg version="1.0" xmlns="http://www.w3.org/2000/svg"
 width="512.000000pt" height="512.000000pt" viewBox="0 0 512.000000 512.000000"
 preserveAspectRatio="xMidYMid meet">

<g transform="translate(0.000000,512.000000) scale(0.100000,-0.100000)"
fill="#fff" stroke="none">
<path d="M2545 4539 c-221 -30 -404 -119 -568 -278 -125 -121 -211 -267 -257
-436 -27 -98 -38 -307 -21 -410 10 -67 10 -71 -12 -85 -114 -77 -225 -203
-289 -330 -24 -47 -44 -87 -46 -89 -1 -3 -19 5 -40 18 -393 234 -906 109
-1167 -284 -93 -140 -132 -259 -141 -425 -22 -397 252 -790 781 -1121 302
-190 807 -399 1215 -503 90 -23 97 -23 124 -8 108 63 446 562 632 934 20 40
38 75 40 77 2 2 56 -47 121 -108 65 -62 128 -114 141 -118 73 -18 550 225 902
460 259 173 448 325 630 507 200 199 320 358 410 545 175 360 158 676 -54 994
-146 219 -353 356 -616 405 -95 18 -246 21 -340 5 -156 -25 -339 -107 -442
-198 -25 -23 -49 -41 -52 -41 -3 0 -24 28 -47 63 -55 81 -178 207 -256 263
-178 128 -433 192 -648 163z m258 -163 c248 -48 442 -196 565 -434 69 -131
106 -143 186 -58 266 282 638 343 983 162 190 -100 339 -286 395 -493 29 -108
29 -296 0 -405 -44 -164 -120 -315 -241 -478 -80 -108 -336 -360 -476 -468
-261 -202 -592 -406 -932 -573 -143 -71 -186 -88 -200 -80 -10 5 -62 54 -117
109 l-98 99 35 89 c45 113 80 231 109 364 18 88 22 137 23 305 0 179 -3 210
-24 290 -44 172 -135 332 -244 432 -233 212 -551 289 -841 202 -37 -11 -71
-17 -74 -14 -4 4 -6 68 -6 143 2 208 49 352 164 504 177 234 504 359 793 304z
m-457 -1081 c232 -54 425 -235 500 -470 100 -316 27 -719 -220 -1215 -122
-245 -287 -509 -472 -755 -84 -113 -88 -116 -118 -109 -86 18 -522 171 -679
238 -204 87 -262 116 -407 199 -505 289 -769 611 -787 958 -7 136 12 230 74
359 38 79 59 108 132 181 73 73 102 94 181 132 118 58 198 77 321 77 161 0
303 -48 434 -145 98 -74 147 -58 180 60 33 119 83 204 175 296 119 120 240
183 405 208 73 12 198 5 281 -14z"/>
<path d="M4450 3606 c-27 -30 -28 -57 -4 -127 30 -85 25 -233 -10 -327 -50
-135 -124 -242 -256 -371 -121 -119 -321 -267 -500 -371 -41 -24 -81 -50 -87
-59 -31 -37 4 -121 50 -121 28 0 212 101 332 182 140 95 222 162 332 274 157
160 251 315 294 484 39 154 9 401 -54 445 -32 22 -70 18 -97 -9z"/>
<path d="M2097 3000 c-21 -17 -27 -30 -27 -59 0 -46 11 -56 110 -103 130 -62
202 -142 243 -273 67 -217 -22 -580 -227 -920 -44 -74 -47 -115 -10 -144 72
-56 118 -9 240 244 118 244 167 439 167 655 0 115 -4 147 -25 217 -48 160
-153 283 -302 354 -108 52 -134 56 -169 29z"/>
</g>
</svg>
