<?xml version="1.0" standalone="no"?>
<!DOCTYPE svg PUBLIC "-//W3C//DTD SVG 20010904//EN"
 "http://www.w3.org/TR/2001/REC-SVG-20010904/DTD/svg10.dtd">
<svg version="1.0" xmlns="http://www.w3.org/2000/svg"
 width="512.000000pt" height="512.000000pt" viewBox="0 0 512.000000 512.000000"
 preserveAspectRatio="xMidYMid meet">

<g transform="translate(0.000000,512.000000) scale(0.100000,-0.100000)"
fill="#fff" stroke="none">
<path d="M3385 4939 c-270 -37 -513 -137 -733 -301 l-94 -70 -56 44 c-219 171
-459 275 -725 314 -149 22 -412 15 -541 -15 -148 -34 -255 -72 -373 -132 -334
-169 -624 -482 -752 -814 -83 -213 -105 -335 -105 -565 0 -205 15 -307 74
-481 88 -265 175 -395 458 -681 l215 -217 -46 -55 c-149 -173 -152 -387 -8
-548 53 -60 164 -117 243 -125 l56 -6 7 -61 c25 -211 177 -354 384 -361 l75
-3 11 -53 c23 -115 112 -225 223 -277 50 -24 69 -27 159 -27 l102 0 12 -47
c14 -62 75 -155 127 -196 22 -18 67 -45 99 -60 50 -23 71 -27 154 -27 90 0 99
2 170 37 70 35 108 71 707 670 615 616 632 634 632 671 0 56 -43 97 -101 97
l-43 0 -631 -628 c-667 -666 -652 -652 -741 -652 -64 1 -150 62 -173 123 -15
39 -14 111 2 150 8 18 182 216 388 441 206 224 382 423 393 442 17 31 17 39 4
72 -8 22 -27 44 -47 56 -66 38 -69 36 -520 -459 -283 -310 -424 -457 -452
-472 -79 -43 -180 -20 -235 52 -36 47 -46 143 -20 193 13 25 351 396 838 919
41 45 48 58 48 93 0 33 -6 48 -29 71 -40 40 -88 40 -134 -1 -19 -16 -227 -237
-463 -490 -249 -268 -441 -466 -460 -475 -50 -23 -86 -28 -132 -15 -48 13
-106 59 -129 104 -21 40 -20 123 1 164 9 17 219 253 467 523 248 270 454 502
460 516 16 42 10 64 -25 99 -36 36 -67 42 -108 23 -13 -5 -221 -226 -463 -490
-484 -528 -482 -526 -581 -516 -70 7 -117 37 -151 95 -34 57 -37 130 -8 185
11 20 373 426 804 902 674 744 786 863 800 852 9 -6 96 -79 195 -161 104 -86
203 -159 234 -173 214 -99 468 -10 572 200 71 144 60 300 -31 435 -29 45 -114
123 -354 327 -173 148 -314 274 -312 279 7 22 165 127 262 175 109 54 215 90
346 118 117 24 371 24 489 0 280 -59 495 -178 705 -391 191 -193 310 -409 366
-666 31 -138 33 -390 6 -520 -63 -298 -167 -478 -429 -746 -105 -107 -169
-181 -174 -199 -16 -63 54 -130 121 -117 40 7 372 353 444 461 118 178 201
380 238 581 24 132 24 411 0 535 -68 348 -213 606 -482 863 -214 205 -454 332
-740 392 -116 24 -378 35 -490 19z m-1560 -224 c192 -43 386 -132 527 -242 93
-73 755 -639 826 -707 62 -58 85 -108 85 -181 0 -169 -175 -282 -329 -213 -16
7 -130 98 -254 201 -124 104 -236 193 -250 199 -66 25 -42 49 -807 -794 -395
-435 -721 -796 -726 -802 -13 -19 -404 385 -469 484 -216 328 -279 697 -184
1072 125 492 575 909 1066 988 41 6 82 13 90 15 39 10 361 -5 425 -20z"/>
<path d="M4034 1960 c-54 -21 -72 -105 -34 -153 39 -49 122 -44 156 9 55 83
-29 182 -122 144z"/>
</g>
</svg>
