<?xml version="1.0" standalone="no"?>
<!DOCTYPE svg PUBLIC "-//W3C//DTD SVG 20010904//EN"
 "http://www.w3.org/TR/2001/REC-SVG-20010904/DTD/svg10.dtd">
<svg version="1.0" xmlns="http://www.w3.org/2000/svg"
 width="512.000000pt" height="512.000000pt" viewBox="0 0 512.000000 512.000000"
 preserveAspectRatio="xMidYMid meet">

<g transform="translate(0.000000,512.000000) scale(0.100000,-0.100000)"
fill="#fff" stroke="none">
<path d="M1885 5114 c-81 -9 -202 -34 -285 -60 -71 -22 -107 -27 -220 -29
-158 -3 -217 -16 -345 -79 -232 -114 -392 -345 -411 -595 -11 -131 -28 -150
-154 -171 -137 -23 -283 -128 -344 -248 -95 -188 -59 -413 90 -557 31 -30 44
-51 44 -70 0 -47 30 -148 63 -208 60 -114 228 -238 365 -270 50 -11 53 -14 63
-52 74 -294 230 -534 456 -702 87 -65 230 -143 261 -143 35 0 72 38 72 74 0
39 -23 63 -98 100 -83 41 -161 95 -236 166 -170 160 -257 327 -330 632 -8 34
-29 46 -103 59 -69 12 -183 66 -236 109 -43 36 -89 101 -105 147 l-11 32 83
-6 c96 -7 162 6 252 48 110 52 211 175 242 294 6 22 13 87 17 145 3 58 10 130
16 160 12 60 56 163 88 209 42 59 15 131 -50 131 -41 0 -74 -36 -122 -134 -51
-103 -73 -197 -81 -336 -4 -63 -14 -136 -22 -162 -21 -64 -92 -140 -162 -175
-48 -24 -69 -28 -137 -28 -100 1 -162 26 -228 93 -67 68 -91 129 -91 227 0 97
25 157 94 225 57 57 101 78 203 96 91 16 154 48 193 99 32 42 54 113 54 174 1
228 185 466 420 543 53 17 92 21 205 22 123 1 150 5 221 28 146 48 244 62 429
62 184 1 266 -12 419 -62 71 -23 97 -27 216 -27 186 -1 284 -32 410 -131 129
-101 201 -240 220 -423 11 -106 32 -162 79 -209 46 -46 79 -60 171 -76 102
-18 157 -45 210 -102 65 -70 85 -123 85 -224 0 -73 -4 -92 -28 -137 -34 -66
-84 -116 -150 -150 -45 -24 -64 -28 -137 -28 -99 0 -152 20 -220 81 -71 64
-92 119 -101 268 -17 261 -87 419 -254 574 -93 87 -234 161 -359 188 -163 35
-373 6 -517 -73 l-46 -25 -59 30 c-191 96 -425 108 -627 32 -65 -24 -84 -40
-93 -77 -9 -33 24 -77 59 -81 15 -2 62 9 104 24 95 33 224 42 325 24 46 -8
104 -30 175 -66 59 -30 113 -54 121 -54 8 0 40 16 72 36 192 118 435 125 629
18 88 -50 196 -160 243 -249 52 -100 69 -168 78 -318 11 -183 41 -258 142
-354 103 -97 232 -142 374 -129 75 6 75 6 69 -17 -36 -119 -179 -230 -338
-263 -38 -8 -78 -19 -88 -24 -20 -11 -20 -12 -48 -133 -33 -140 -99 -287 -183
-403 l-29 -41 -64 18 c-361 100 -780 -3 -1056 -258 -108 -100 -99 -2 -99
-1073 0 -892 1 -937 19 -970 22 -42 83 -80 129 -80 39 0 68 14 156 75 89 63
216 120 322 147 128 32 353 32 473 0 105 -29 183 -61 283 -119 97 -57 153 -65
222 -35 l46 21 46 -21 c71 -31 122 -22 232 41 216 124 444 166 673 126 156
-27 277 -77 413 -173 97 -67 143 -76 205 -41 27 15 48 37 61 64 20 40 20 62
20 959 0 675 -3 929 -12 958 -36 119 -307 307 -542 373 -48 14 -99 25 -112 25
-12 0 -25 4 -28 8 -3 5 123 136 280 293 195 195 288 294 295 317 23 69 7 97
-129 235 -70 71 -139 135 -154 143 -15 8 -49 14 -75 14 l-48 0 -610 -611 -611
-610 -89 55 c-48 31 -92 56 -97 56 -5 0 10 27 32 60 59 86 116 210 151 325 17
55 34 107 38 115 4 8 30 20 56 27 130 33 281 140 351 248 35 56 74 170 74 219
0 24 12 44 53 87 182 195 183 469 1 660 -71 74 -151 116 -266 139 -125 25
-136 37 -148 161 -11 111 -30 180 -75 269 -67 133 -178 250 -305 322 -115 65
-297 106 -416 94 -54 -5 -78 -2 -144 18 -149 47 -275 68 -440 71 -85 2 -173 1
-195 -1z m2160 -2793 c-663 -663 -744 -740 -778 -747 -104 -18 -190 66 -171
168 5 27 132 159 748 776 l741 742 100 -100 100 -100 -740 -739z m-1299 -62
c107 -15 223 -52 324 -106 142 -74 140 -57 18 -181 -101 -103 -118 -128 -144
-219 -3 -10 -87 -13 -379 -13 -362 0 -376 -1 -395 -20 -30 -30 -27 -83 6 -109
26 -20 37 -21 410 -21 259 0 385 -3 389 -11 4 -5 -18 -37 -49 -69 -46 -48 -56
-65 -56 -94 0 -25 7 -40 26 -55 40 -32 60 -26 124 35 l59 56 65 -17 c79 -22
154 -16 217 15 30 15 176 153 445 422 l401 400 69 -7 c183 -19 361 -88 503
-195 136 -103 121 26 121 -1015 l0 -902 -94 61 c-365 241 -842 247 -1218 16
-58 -36 -82 -38 -102 -8 -14 20 -16 83 -16 494 0 459 0 471 -20 489 -28 25
-76 23 -103 -4 -22 -21 -22 -23 -25 -498 -2 -326 -6 -481 -14 -490 -15 -19
-49 -16 -83 8 -50 33 -176 95 -244 118 -216 74 -465 79 -689 15 -109 -31 -248
-98 -330 -158 l-62 -46 0 907 0 907 51 48 c196 190 509 287 795 247z"/>
<path d="M4102 1709 c-29 -5 -62 -14 -72 -19 -11 -6 -30 -8 -43 -4 -33 8 -105
-12 -148 -42 -42 -29 -89 -109 -89 -152 0 -43 -32 -78 -78 -85 -118 -19 -138
-196 -27 -243 31 -13 35 -18 35 -52 1 -113 63 -275 140 -364 156 -181 425
-221 624 -94 141 90 245 280 246 448 0 45 2 49 33 62 52 21 77 60 77 119 0 44
-4 53 -39 88 -23 24 -48 39 -63 39 -42 0 -66 25 -73 79 -15 109 -103 190 -212
196 -32 1 -76 8 -98 13 -62 17 -155 22 -213 11z m238 -235 c67 -37 125 -100
163 -182 30 -62 32 -75 32 -173 0 -101 -1 -108 -38 -181 -70 -143 -182 -213
-327 -206 -168 8 -296 132 -331 320 -31 166 58 355 199 427 88 45 214 43 302
-5z"/>
<path d="M4004 1280 c-28 -11 -54 -48 -54 -78 0 -30 52 -82 82 -82 31 0 67 26
79 58 13 35 -6 79 -42 97 -32 17 -36 17 -65 5z"/>
<path d="M4330 1283 c-75 -27 -81 -123 -10 -153 79 -33 150 70 88 127 -26 24
-56 34 -78 26z"/>
<path d="M4043 1030 c-26 -11 -43 -40 -43 -73 0 -32 48 -73 103 -88 88 -24
243 10 261 56 28 75 -32 131 -107 100 -46 -19 -95 -19 -140 0 -41 17 -44 17
-74 5z"/>
<path d="M2170 1400 c-38 -38 -22 -100 31 -119 41 -14 296 -14 336 -1 54 19
68 84 27 124 -13 13 -45 16 -195 16 -166 0 -180 -1 -199 -20z"/>
<path d="M1255 3785 c-32 -31 -33 -74 -2 -103 19 -18 35 -22 92 -22 l69 0 -26
-27 c-37 -40 -48 -66 -48 -112 0 -51 11 -80 45 -114 40 -39 94 -53 147 -38
117 36 153 175 66 260 l-32 31 62 0 c49 0 66 4 82 20 30 30 27 83 -6 109 -25
20 -40 21 -226 21 -198 0 -199 0 -223 -25z"/>
<path d="M2365 3785 c-32 -31 -33 -77 -3 -105 17 -16 35 -20 87 -20 l65 0 -31
-32 c-62 -65 -63 -157 -2 -217 42 -43 97 -58 151 -42 113 34 149 172 67 257
l-33 34 67 0 c54 0 71 4 87 20 30 30 27 83 -6 109 -25 20 -40 21 -226 21 -198
0 -199 0 -223 -25z"/>
<path d="M1713 3135 c-49 -34 -36 -89 38 -163 83 -82 217 -130 330 -118 111
11 227 75 288 158 37 51 39 81 6 113 -40 40 -70 33 -140 -34 -126 -121 -260
-121 -389 -1 -67 63 -94 72 -133 45z"/>
</g>
</svg>
