<?xml version="1.0" standalone="no"?>
<!DOCTYPE svg PUBLIC "-//W3C//DTD SVG 20010904//EN"
 "http://www.w3.org/TR/2001/REC-SVG-20010904/DTD/svg10.dtd">
<svg version="1.0" xmlns="http://www.w3.org/2000/svg"
 width="512.000000pt" height="512.000000pt" viewBox="0 0 512.000000 512.000000"
 preserveAspectRatio="xMidYMid meet">

<g transform="translate(0.000000,512.000000) scale(0.100000,-0.100000)"
fill="#fff" stroke="none">
<path d="M1622 5105 c-34 -7 -96 -30 -137 -50 l-75 -36 43 -63 42 -64 47 24
c107 54 221 66 339 36 136 -36 244 -127 308 -262 31 -65 36 -86 39 -168 5
-116 -15 -198 -68 -280 -203 -314 -663 -290 -825 43 -71 143 -68 289 6 434 22
41 39 76 39 77 0 5 -106 84 -113 84 -13 0 -77 -121 -100 -190 -46 -137 -45
-272 3 -408 50 -143 167 -275 302 -341 106 -52 182 -71 284 -71 174 0 313 58
439 185 131 130 185 258 185 440 0 109 -18 186 -67 283 -70 141 -203 256 -358
308 -98 33 -237 41 -333 19z"/>
<path d="M2764 5109 c-54 -15 -127 -72 -157 -120 -17 -29 -32 -70 -37 -110
-13 -86 -13 -3096 0 -3171 5 -32 16 -73 25 -92 23 -48 82 -105 135 -130 45
-21 47 -21 1110 -21 l1065 0 53 24 c67 30 127 98 147 164 13 44 15 259 15
1642 0 1806 8 1649 -84 1741 -91 90 -5 84 -1195 83 -595 0 -1060 -5 -1077 -10z
m2137 -154 c60 -31 69 -63 69 -232 l0 -153 -100 0 -100 0 0 26 c0 114 -111
224 -226 224 -42 0 -99 -18 -126 -39 -22 -19 -23 -19 -49 0 -65 46 -176 49
-240 6 l-33 -22 -54 28 c-76 38 -167 33 -222 -11 -21 -17 -24 -17 -79 11 -48
24 -64 28 -112 24 -31 -3 -69 -12 -85 -20 -69 -36 -123 -119 -124 -189 l0 -38
-350 0 -350 0 0 156 c0 129 3 161 17 185 37 62 -21 59 1106 59 909 0 1031 -2
1058 -15z m-1211 -305 c28 -28 32 -55 28 -180 -3 -103 -5 -113 -27 -131 -31
-25 -69 -24 -98 3 -22 20 -23 28 -23 154 0 131 0 133 26 153 34 26 68 27 94 1z
m301 1 c23 -18 24 -27 27 -150 4 -128 3 -131 -22 -156 -31 -31 -72 -32 -103
-3 -22 20 -23 28 -23 154 0 131 0 133 26 153 33 26 65 27 95 2z m304 -6 c24
-23 25 -30 25 -150 0 -120 -1 -127 -25 -150 -30 -31 -71 -32 -102 -3 -22 20
-23 29 -23 150 0 124 1 130 25 153 13 14 36 25 50 25 14 0 37 -11 50 -25z
m300 0 c24 -23 25 -30 25 -150 0 -120 -1 -127 -25 -150 -30 -31 -71 -32 -102
-3 -22 20 -23 29 -23 150 0 124 1 130 25 153 13 14 36 25 50 25 14 0 37 -11
50 -25z m-1173 -280 c13 -150 185 -240 324 -170 l48 25 50 -25 c34 -17 67 -25
101 -25 35 0 67 8 101 25 l48 25 50 -25 c34 -17 67 -25 101 -25 35 0 67 8 101
25 l48 25 50 -25 c91 -45 193 -27 263 46 35 37 63 104 63 150 l0 29 100 0 100
0 0 -325 0 -325 -100 0 -100 0 0 33 c0 38 -33 113 -63 145 -65 70 -184 88
-267 42 l-45 -26 -40 23 c-22 12 -57 25 -78 28 -122 21 -256 -87 -257 -207 l0
-38 -173 0 -173 0 -12 58 c-21 101 -92 172 -188 188 -47 7 -144 -17 -164 -41
-11 -13 -17 -12 -54 10 -58 34 -112 40 -177 22 -88 -26 -159 -114 -159 -197
l0 -40 -100 0 -100 0 0 325 0 325 349 0 349 0 4 -55z m-235 -519 l28 -24 0
-132 c0 -126 -1 -133 -24 -151 -30 -25 -76 -24 -101 1 -18 18 -20 33 -20 154
0 133 0 135 26 155 35 27 57 26 91 -3z m305 -6 l30 -30 -4 -126 c-3 -118 -4
-127 -27 -145 -30 -25 -76 -24 -101 1 -18 18 -20 33 -20 154 0 133 0 135 26
155 36 29 60 26 96 -9z m781 19 c38 -17 47 -51 47 -173 0 -99 -3 -117 -21
-140 -27 -34 -79 -36 -109 -4 -18 20 -20 35 -20 150 0 124 1 130 25 153 27 28
42 30 78 14z m306 -4 c16 -8 31 -22 35 -30 3 -9 6 -70 6 -134 0 -105 -2 -121
-21 -145 -26 -33 -73 -35 -106 -4 -22 20 -23 29 -23 145 0 130 7 158 43 173
31 12 34 12 66 -5z m-1658 -293 c8 -65 44 -122 100 -159 61 -40 155 -44 223
-10 l48 25 46 -24 c139 -74 306 18 329 181 l6 45 173 0 174 0 0 -38 c0 -57 47
-141 98 -177 61 -42 156 -47 225 -12 l49 25 48 -24 c87 -43 196 -26 263 42 40
39 57 76 64 135 l6 49 98 0 99 0 0 -325 0 -325 -99 0 -98 0 -7 49 c-9 70 -58
138 -120 170 -147 75 -326 -30 -326 -191 l0 -28 -173 0 -173 0 -12 59 c-7 33
-25 76 -41 98 -62 86 -191 113 -286 59 -44 -24 -49 -25 -66 -10 -28 25 -109
45 -154 38 -22 -3 -59 -17 -83 -30 -43 -23 -44 -23 -70 -4 -35 25 -111 42
-154 33 -105 -20 -188 -111 -188 -208 l0 -35 -100 0 -100 0 0 325 0 326 98 -3
97 -3 6 -53z m274 -523 c18 -18 20 -33 20 -148 0 -150 -9 -171 -76 -171 -61 0
-69 21 -69 176 0 112 2 133 18 146 36 32 72 31 107 -3z m303 -6 c22 -25 23
-32 20 -148 -2 -104 -6 -126 -22 -144 -25 -27 -79 -28 -106 -1 -18 18 -20 33
-20 146 0 131 7 159 43 174 30 12 58 3 85 -27z m300 1 c20 -23 22 -35 22 -143
0 -105 -2 -121 -21 -145 -26 -33 -79 -36 -109 -6 -18 18 -20 33 -20 146 0 131
7 159 43 174 30 12 58 3 85 -26z m769 26 c44 -16 53 -47 53 -174 0 -99 -3
-117 -21 -140 -26 -33 -79 -36 -109 -6 -18 18 -20 33 -20 148 0 133 4 148 45
170 11 6 20 12 21 12 1 0 15 -5 31 -10z m-1646 -295 c15 -122 100 -195 226
-195 43 0 69 7 100 24 l42 24 47 -24 c65 -33 153 -33 211 0 l42 24 47 -24
c125 -63 281 0 319 130 8 27 15 60 15 73 l0 23 172 -2 173 -3 6 -46 c19 -132
107 -205 240 -197 53 3 75 9 108 33 53 36 90 98 98 164 l6 51 98 0 99 0 0
-330 0 -330 -99 0 -98 0 -6 51 c-8 66 -45 128 -98 165 -35 24 -54 29 -113 32
-61 3 -78 0 -118 -22 l-47 -25 -43 24 c-60 34 -147 34 -211 0 l-46 -24 -46 26
c-63 35 -162 31 -224 -10 -56 -37 -92 -94 -100 -159 l-6 -53 -171 -3 -172 -2
-7 47 c-18 122 -106 203 -220 203 -124 0 -209 -74 -224 -195 l-6 -50 -97 -3
-98 -3 0 331 0 331 98 -3 97 -3 6 -50z m275 -526 c17 -18 19 -37 19 -150 0
-119 -2 -130 -22 -150 -27 -27 -75 -29 -103 -4 -18 16 -20 31 -20 152 0 120 2
135 20 153 27 27 81 26 106 -1z m803 -5 c19 -24 21 -40 21 -145 0 -109 -2
-120 -23 -145 -31 -35 -82 -38 -109 -5 -15 20 -18 42 -18 152 0 116 2 131 20
149 30 30 83 27 109 -6z m300 0 c18 -23 21 -41 21 -140 0 -63 -5 -124 -11
-138 -23 -49 -104 -53 -128 -7 -6 11 -11 76 -11 145 0 113 2 128 20 146 30 30
83 27 109 -6z m300 0 c18 -23 21 -41 21 -140 0 -63 -5 -124 -11 -138 -23 -51
-103 -55 -128 -7 -6 11 -11 76 -11 145 0 113 2 128 20 146 30 30 83 27 109 -6z
m-1679 -259 c0 -99 83 -189 193 -209 97 -18 212 57 242 157 8 28 15 59 15 69
0 17 12 18 175 18 l175 0 0 -35 c0 -155 182 -258 325 -184 l50 25 44 -25 c62
-34 140 -34 206 0 l50 25 44 -25 c132 -74 307 17 327 170 l7 49 98 0 99 0 0
-145 c0 -162 -9 -199 -56 -230 -28 -19 -56 -20 -1049 -23 -702 -2 -1031 0
-1057 8 -20 6 -48 24 -62 41 -26 30 -26 33 -26 190 l0 159 100 0 100 0 0 -35z"/>
<path d="M1680 4680 l0 -110 -110 0 -110 0 0 -75 0 -75 110 0 109 0 3 -112 3
-113 73 -3 72 -3 0 116 0 115 115 0 115 0 0 75 0 75 -115 0 -115 0 0 110 0
110 -75 0 -75 0 0 -110z"/>
<path d="M528 4210 c-66 -11 -166 -46 -210 -73 l-37 -22 40 -62 40 -61 62 28
c136 64 281 62 416 -6 351 -175 347 -671 -7 -847 l-86 -42 -120 0 c-118 0
-123 1 -196 36 -260 125 -353 415 -214 668 19 35 32 67 27 71 -4 3 -30 24 -56
45 l-49 39 -19 -25 c-36 -45 -90 -167 -104 -236 -45 -209 19 -419 174 -573
124 -123 262 -180 436 -180 178 0 315 57 440 184 92 93 136 169 165 282 56
218 -5 439 -165 599 -140 140 -346 207 -537 175z"/>
<path d="M330 3595 l0 -75 300 0 301 0 -3 73 -3 72 -297 3 -298 2 0 -75z"/>
<path d="M1675 3310 c-106 -16 -255 -75 -255 -100 0 -15 71 -120 81 -120 4 0
10 4 14 9 9 16 109 50 176 60 177 29 371 -61 470 -217 68 -108 89 -267 49
-393 -25 -82 -54 -128 -121 -196 -137 -139 -355 -175 -534 -89 -120 58 -201
148 -247 274 -44 120 -23 298 47 404 14 21 25 41 25 45 0 5 -25 28 -56 52 -65
51 -60 54 -124 -74 -121 -241 -76 -517 115 -711 215 -218 538 -251 792 -82
125 84 220 218 258 368 26 99 17 272 -18 364 -71 184 -217 324 -396 380 -86
27 -202 38 -276 26z"/>
<path d="M1535 2910 l-49 -50 84 -85 85 -85 -85 -85 -85 -85 53 -52 52 -53 85
85 85 85 83 -83 82 -82 53 52 52 53 -82 82 -83 83 83 83 82 82 -52 53 -53 52
-82 -82 -83 -83 -83 83 c-45 45 -85 82 -88 82 -2 0 -27 -23 -54 -50z"/>
<path d="M471 2394 c-59 -16 -133 -46 -169 -70 l-22 -15 40 -59 c23 -33 42
-60 44 -60 2 0 35 14 72 32 59 27 83 33 162 36 116 5 198 -15 280 -68 312
-202 290 -659 -40 -824 -182 -92 -385 -61 -538 81 -163 151 -196 412 -74 596
l27 41 -44 39 c-71 62 -71 62 -109 4 -19 -29 -48 -90 -64 -137 -27 -75 -30
-98 -31 -200 0 -95 4 -128 24 -188 111 -339 474 -519 809 -402 143 50 275 168
341 302 52 106 71 182 71 284 0 173 -58 313 -185 440 -87 89 -174 140 -282
168 -76 20 -239 20 -312 0z"/>
<path d="M550 2085 l0 -75 75 0 75 0 0 75 0 75 -75 0 -75 0 0 -75z"/>
<path d="M330 1785 l0 -75 298 2 297 3 3 73 3 72 -301 0 -300 0 0 -75z"/>
<path d="M550 1485 l0 -75 75 0 75 0 0 75 0 75 -75 0 -75 0 0 -75z"/>
<path d="M1045 1060 c-501 -65 -911 -119 -912 -119 -2 -1 -3 -111 -3 -246 l0
-245 -65 0 -65 0 0 -225 0 -225 295 0 295 0 0 75 0 75 -220 0 -220 0 0 75 0
75 1560 0 1560 0 0 75 0 75 -316 0 -316 0 4 138 c4 122 7 143 31 195 37 80
122 167 205 208 56 28 81 34 152 37 47 2 137 -3 200 -11 63 -9 116 -15 117
-13 4 4 22 140 19 143 -1 2 -54 10 -116 18 -144 19 -260 19 -333 0 -122 -32
-251 -118 -317 -214 -19 -27 -37 -50 -40 -50 -3 0 -23 25 -45 56 -68 96 -188
176 -312 208 -104 27 -217 17 -1158 -105z m1196 -68 c81 -39 169 -128 206
-209 24 -52 27 -73 31 -195 l4 -138 -1101 0 -1101 0 0 180 c0 99 3 180 8 180
4 1 383 50 842 110 962 125 997 128 1111 72z"/>
<path d="M3516 1113 c-10 -38 -17 -133 -9 -133 14 0 1266 -160 1301 -166 l32
-6 0 -179 0 -179 -710 0 -710 0 0 -75 0 -75 775 0 775 0 0 -75 0 -75 -2115 0
-2115 0 0 -75 0 -75 2190 0 2190 0 0 225 0 225 -65 0 -65 0 0 245 0 245 -22 5
c-18 4 -1430 185 -1444 185 -1 0 -5 -8 -8 -17z"/>
<path d="M2850 675 l0 -75 75 0 75 0 0 75 0 75 -75 0 -75 0 0 -75z"/>
<path d="M3150 675 l0 -75 75 0 75 0 0 75 0 75 -75 0 -75 0 0 -75z"/>
</g>
</svg>
