<?xml version="1.0" standalone="no"?>
<!DOCTYPE svg PUBLIC "-//W3C//DTD SVG 20010904//EN"
 "http://www.w3.org/TR/2001/REC-SVG-20010904/DTD/svg10.dtd">
<svg version="1.0" xmlns="http://www.w3.org/2000/svg"
 width="512.000000pt" height="512.000000pt" viewBox="0 0 512.000000 512.000000"
 preserveAspectRatio="xMidYMid meet">

<g transform="translate(0.000000,512.000000) scale(0.100000,-0.100000)"
fill="#ffff" stroke="none">
<path d="M3457 5105 c-22 -7 -50 -23 -63 -36 -44 -42 -47 -70 -42 -421 l6
-327 -264 -186 c-145 -103 -275 -200 -288 -216 -51 -61 -43 -153 18 -207 31
-27 127 -62 320 -119 15 -4 -261 -285 -1298 -1322 -1278 -1278 -1316 -1317
-1316 -1354 0 -47 28 -77 72 -77 29 0 77 45 509 477 l477 476 65 -134 65 -134
-681 -682 c-375 -375 -690 -684 -702 -685 -53 -9 -135 46 -172 116 -28 55 -13
80 142 237 156 157 164 172 124 223 -15 19 -29 26 -57 26 -33 0 -47 -11 -182
-147 -80 -82 -155 -166 -166 -188 -27 -56 -26 -166 3 -220 27 -52 141 -161
190 -182 60 -25 148 -21 208 10 38 19 345 321 1292 1269 682 684 1244 1253
1248 1265 7 26 -17 78 -40 87 -48 18 -66 7 -204 -129 l-138 -135 -63 135 -64
136 436 436 436 436 81 -23 80 -22 20 -68 c12 -38 21 -72 21 -77 0 -4 -101
-109 -225 -233 -124 -124 -235 -240 -246 -257 -34 -54 -3 -113 60 -113 32 0
51 16 252 216 172 172 218 212 222 198 79 -277 108 -339 174 -373 37 -19 107
-13 144 12 20 13 108 128 222 290 l189 267 345 0 c336 0 347 1 381 22 38 23
71 85 72 133 0 47 -22 82 -216 340 -99 132 -183 245 -187 252 -4 7 40 153 98
325 89 260 106 320 102 357 -6 57 -32 90 -92 120 -48 25 -49 25 -112 8 -167
-44 -220 -83 -194 -145 22 -54 56 -59 161 -24 49 17 90 28 90 25 0 -3 -47
-145 -105 -315 -59 -174 -105 -326 -105 -347 0 -46 11 -63 233 -361 l176 -235
-352 -5 c-290 -4 -356 -8 -375 -20 -12 -8 -109 -138 -215 -287 -105 -150 -195
-273 -199 -273 -4 0 -12 17 -18 38 -5 20 -50 165 -99 322 -77 245 -93 288
-119 311 -36 32 -51 38 -382 140 -146 45 -271 84 -278 88 -8 5 82 74 250 193
145 103 273 197 286 211 39 42 42 75 35 416 -6 287 -5 324 9 319 8 -4 121 -85
250 -182 289 -214 291 -216 349 -216 43 0 159 33 208 60 52 27 46 107 -9 130
-25 10 -41 8 -110 -15 -44 -15 -87 -25 -94 -22 -8 3 -128 91 -267 195 -164
123 -268 194 -294 201 -48 13 -41 13 -88 -4z m-1048 -2697 l62 -132 -68 -68
-68 -68 -62 122 c-34 68 -62 130 -62 138 -1 14 116 140 130 140 3 0 34 -59 68
-132z m-251 -250 l63 -132 -70 -70 -70 -70 -64 135 -64 134 66 68 c36 37 68
67 71 67 3 -1 33 -60 68 -132z m-287 -180 c17 -34 46 -95 64 -134 l33 -72 -69
-68 -68 -68 -66 135 -65 134 67 67 c37 38 69 68 70 68 2 0 17 -28 34 -62z"/>
<path d="M2999 4948 c-16 -5 -32 -22 -39 -39 -11 -26 -9 -43 20 -140 29 -96
37 -112 63 -125 36 -19 72 -11 93 21 20 30 14 74 -24 189 -23 69 -31 82 -57
92 -20 7 -39 8 -56 2z"/>
<path d="M2553 4508 c-31 -15 -46 -63 -30 -97 10 -21 30 -32 107 -58 103 -34
140 -39 171 -22 48 25 44 105 -7 127 -30 14 -195 62 -209 61 -5 0 -20 -5 -32
-11z"/>
<path d="M4667 3130 c-30 -24 -37 -73 -14 -104 14 -19 192 -76 238 -76 32 0
69 40 69 76 0 38 -33 61 -122 88 -129 40 -140 41 -171 16z"/>
<path d="M4341 2804 c-27 -34 -27 -35 9 -157 31 -106 53 -137 95 -137 34 0 75
37 75 68 0 43 -52 211 -72 232 -28 30 -81 27 -107 -6z"/>
</g>
</svg>
