<?xml version="1.0" standalone="no"?>
<!DOCTYPE svg PUBLIC "-//W3C//DTD SVG 20010904//EN"
 "http://www.w3.org/TR/2001/REC-SVG-20010904/DTD/svg10.dtd">
<svg version="1.0" xmlns="http://www.w3.org/2000/svg"
 width="512.000000pt" height="512.000000pt" viewBox="0 0 512.000000 512.000000"
 preserveAspectRatio="xMidYMid meet">

<g transform="translate(0.000000,512.000000) scale(0.100000,-0.100000)"
fill="#fff" stroke="none">
<path d="M3833 4865 c-119 -26 -186 -68 -330 -208 -72 -71 -148 -153 -168
-182 -48 -69 -83 -169 -91 -256 l-7 -70 -281 279 c-188 186 -301 290 -341 314
-202 121 -457 121 -660 0 -39 -23 -131 -106 -261 -236 -183 -183 -203 -206
-223 -261 -71 -190 27 -382 220 -431 74 -19 131 -13 209 22 43 20 91 62 220
189 l165 165 163 -163 162 -162 -359 -359 -360 -359 -403 37 c-227 22 -431 36
-468 34 -100 -7 -164 -44 -293 -168 -124 -118 -146 -154 -123 -199 9 -16 23
-31 31 -35 47 -18 67 -6 184 109 64 63 133 121 154 130 51 21 91 19 551 -24
355 -34 413 -38 435 -26 14 7 207 195 429 417 375 377 402 406 402 438 0 32
-18 53 -218 253 -301 301 -274 299 -535 39 -154 -152 -189 -182 -225 -192
-110 -29 -214 47 -214 158 0 27 7 62 15 78 8 16 102 115 209 220 163 161 203
196 259 222 127 61 275 61 407 2 63 -29 104 -68 722 -685 454 -453 664 -656
683 -661 42 -10 81 22 85 70 3 35 -2 43 -93 136 l-97 98 64 7 c80 9 185 44
246 84 26 17 111 95 188 173 111 114 146 156 170 208 107 225 65 472 -110 645
-139 138 -322 191 -513 150z m223 -149 c156 -41 267 -159 300 -317 19 -91 8
-177 -35 -264 -42 -84 -263 -303 -344 -340 -80 -37 -172 -51 -243 -36 -274 55
-420 332 -304 578 25 55 54 90 158 194 70 70 146 136 170 148 96 49 205 62
298 37z"/>
<path d="M4715 3477 c-80 -27 -113 -52 -272 -210 l-162 -160 -56 51 c-72 66
-120 70 -150 11 -19 -36 -7 -70 43 -123 68 -71 110 -96 162 -96 60 0 65 3 275
211 142 140 176 168 208 174 55 11 103 -2 144 -38 64 -56 79 -127 43 -202 -24
-50 -343 -369 -415 -414 -84 -53 -171 -74 -284 -69 -87 4 -106 9 -177 43 -73
35 -97 56 -315 272 -175 173 -242 233 -260 233 -18 0 -340 -316 -1389 -1364
-751 -750 -1379 -1371 -1395 -1379 -140 -70 -303 8 -336 162 -9 41 -7 61 6
108 16 58 21 62 851 893 762 763 834 838 834 868 0 35 -29 72 -58 72 -9 0
-203 18 -430 40 -262 24 -422 36 -435 30 -12 -5 -157 -144 -322 -310 -165
-166 -318 -311 -340 -323 -29 -15 -58 -21 -106 -22 -56 0 -73 4 -115 30 -89
56 -131 162 -104 262 12 42 34 69 182 220 164 166 169 172 166 209 -4 48 -43
80 -85 70 -18 -5 -85 -64 -191 -170 -135 -136 -167 -175 -193 -229 -96 -206 2
-444 215 -523 73 -27 192 -25 271 6 55 21 84 46 365 326 263 261 310 304 335
304 44 0 589 -52 595 -57 2 -2 -341 -349 -762 -771 -600 -600 -772 -778 -791
-818 -98 -196 -18 -423 181 -517 60 -29 76 -32 157 -32 77 0 99 5 155 29 61
28 108 73 741 704 651 648 677 674 689 651 7 -12 33 -45 58 -71 l45 -49 -101
-103 c-116 -118 -142 -162 -142 -251 0 -100 55 -185 145 -226 55 -26 156 -25
209 1 26 12 137 116 299 278 223 224 257 262 257 288 0 38 -36 74 -75 74 -24
0 -69 -40 -285 -255 -255 -253 -257 -255 -299 -255 -60 0 -101 41 -101 100 0
41 5 47 142 186 122 124 141 148 141 175 0 23 -8 39 -29 56 -92 75 -117 99
-140 140 l-27 45 438 438 439 439 39 -22 c130 -73 206 -239 185 -402 -14 -103
-48 -156 -199 -310 -81 -83 -140 -151 -144 -167 -6 -22 -1 -33 23 -58 17 -16
41 -30 54 -30 36 0 317 288 356 365 46 93 63 160 63 260 0 158 -56 289 -168
396 -32 31 -67 60 -78 67 -18 10 -12 20 92 124 l113 113 192 -192 c283 -280
352 -318 583 -318 241 0 323 45 606 332 220 223 234 245 233 373 0 72 -4 93
-27 137 -36 69 -88 120 -155 151 -65 29 -160 38 -217 19z"/>
<path d="M1703 894 c-77 -38 -168 -140 -189 -211 -61 -210 158 -394 352 -295
51 26 160 140 180 188 33 78 16 186 -41 260 -62 81 -202 108 -302 58z m180
-150 c47 -46 39 -105 -20 -167 -70 -72 -121 -84 -172 -41 -62 52 -50 118 35
193 39 34 54 41 89 41 32 0 48 -6 68 -26z"/>
</g>
</svg>
